<svg xmlns="http://www.w3.org/2000/svg" viewBox="0 0 600 340">
  <defs>
    <linearGradient id="grad-event" x1="0" y1="0" x2="1" y2="1">
      <stop offset="0%" stop-color="#d97706"/>
      <stop offset="100%" stop-color="#92400e"/>
    </linearGradient>
  </defs>
  <rect width="600" height="340" fill="#18181b"/>
  <rect x="0" y="0" width="600" height="340" fill="url(#grad-event)" opacity="0.1"/>
  <g transform="translate(300,155)" fill="none" stroke="#a1a1aa" stroke-width="1.5" opacity="0.45">
    <rect x="-55" y="-55" width="50" height="50" rx="4"/>
    <line x1="-55" y1="-40" x2="-5" y2="-40"/>
    <line x1="-45" y1="-62" x2="-45" y2="-55"/>
    <line x1="-15" y1="-62" x2="-15" y2="-55"/>
    <circle cx="-40" cy="-25" r="2.5" fill="#a1a1aa"/>
    <circle cx="-30" cy="-25" r="2.5" fill="#a1a1aa"/>
    <circle cx="-20" cy="-25" r="2.5" fill="#a1a1aa"/>
    <circle cx="-40" cy="-14" r="2.5" fill="#a1a1aa"/>
    <path d="M15,-55 Q15,-30 30,-15 L30,35 M30,35 L18,40 L42,40" stroke-width="1.5"/>
    <path d="M15,-55 L45,-55 Q48,-40 30,-15 Q12,-40 15,-55 Z"/>
  </g>
  <text x="300" y="280" text-anchor="middle" fill="#71717a" font-family="system-ui,sans-serif" font-size="13" letter-spacing="2">EVENEMENT</text>
</svg>
